<?xml version="1.0" standalone="no"?>
<!DOCTYPE svg PUBLIC "-//W3C//DTD SVG 1.1//EN"
  "http://www.w3.org/Graphics/SVG/1.1/DTD/svg11.dtd">
<!-- Created with matplotlib (http://matplotlib.sourceforge.net/) -->
<svg width="720pt" height="360pt" viewBox="0 0 720 360"
   xmlns="http://www.w3.org/2000/svg"
   xmlns:xlink="http://www.w3.org/1999/xlink"
   version="1.1"
   id="svg1">
<filter id="colorAdd"><feComposite in="SourceGraphic" in2="BackgroundImage" operator="arithmetic" k2="1" k3="1"/></filter>
<g id="figure1">
<g id="patch1">
<path style="fill: #ffffff; stroke: #ffffff; stroke-width: 1.000000; stroke-linejoin: round; stroke-linecap: square;  opacity: 1.000000"  d="M0.000000 360.000000L720.000000 360.000000L720.000000 0.000000
L0.000000 0.000000z"/>
</g>
<g id="axes1">
<g id="patch2">
<path style="fill: #ffffff; opacity: 1.000000"  d="M90.000000 324.000000L648.000000 324.000000L648.000000 36.000000
L90.000000 36.000000z"/>
</g>
<g id="line2d1">
<defs>
  <clipPath id="p234061e75ae0754b25a726bd471b99f6">
<rect x="90.000000" y="36.000000" width="558.000000" height="288.000000"/>
  </clipPath>
</defs><path style="fill: none; stroke: #0000ff; stroke-width: 1.000000; stroke-linejoin: round; stroke-linecap: square;  opacity: 1.000000" clip-path="url(#p234061e75ae0754b25a726bd471b99f6)" d="M90.000000 324.000000L152.000000 309.600000L214.000000 295.200000
L276.000000 280.800000L338.000000 266.400000L400.000000 252.000000
L462.000000 237.600000L524.000000 223.200000L586.000000 208.800000
L648.000000 194.400000"/>
</g>
<g id="line2d2">
<path style="fill: none; stroke: #008000; stroke-width: 1.000000; stroke-linejoin: round; stroke-linecap: square;  opacity: 1.000000" clip-path="url(#p234061e75ae0754b25a726bd471b99f6)" d="M90.000000 180.000000L152.000000 194.400000L214.000000 194.400000
L276.000000 122.400000L338.000000 50.400000L400.000000 223.200000
L462.000000 280.800000L524.000000 295.200000L586.000000 237.600000
L648.000000 93.600000"/>
</g>
<g id="matplotlib.axis1">
<g id="xtick1">
<g id="line2d3">
<defs><path id="m30e32995789d870ad79a2e54c91cf9c6" d="M0.000000 0.000000L0.000000 -4.000000"/></defs>
<g ><use style="fill: none; stroke: #000000; stroke-width: 0.500000; stroke-linejoin: round; stroke-linecap: butt;  opacity: 1.000000" xlink:href="#m30e32995789d870ad79a2e54c91cf9c6" x="90.000000" y="324.000000"/>
</g></g>
<g id="line2d4">
<defs><path id="m9281cae24120827b11d5ea8a7ad3e96b" d="M0.000000 0.000000L0.000000 4.000000"/></defs>
<g ><use style="fill: none; stroke: #000000; stroke-width: 0.500000; stroke-linejoin: round; stroke-linecap: butt;  opacity: 1.000000" xlink:href="#m9281cae24120827b11d5ea8a7ad3e96b" x="90.000000" y="36.000000"/>
</g></g>
<g id="text1">
<defs>
<path id="c_7a2040fe3b94fcd41d0a72c84e93b115" d="M31.781250 -66.406250q-7.609375 0.000000 -11.453125 7.500000q-3.828125 7.484375 -3.828125 22.531250q0.000000 14.984375 3.828125 22.484375q3.843750 7.500000 11.453125 7.500000q7.671875 0.000000 11.500000 -7.500000q3.843750 -7.500000 3.843750 -22.484375q0.000000 -15.046875 -3.843750 -22.531250q-3.828125 -7.500000 -11.500000 -7.500000M31.781250 -74.218750q12.265625 0.000000 18.734375 9.703125q6.468750 9.687500 6.468750 28.140625q0.000000 18.406250 -6.468750 28.109375q-6.468750 9.687500 -18.734375 9.687500q-12.250000 0.000000 -18.718750 -9.687500q-6.468750 -9.703125 -6.468750 -28.109375q0.000000 -18.453125 6.468750 -28.140625q6.468750 -9.703125 18.718750 -9.703125"/>
</defs>
<g style="fill: #000000; opacity: 1.000000" transform="translate(86.976562,336.906250)scale(0.120000)">
<use xlink:href="#c_7a2040fe3b94fcd41d0a72c84e93b115"/>
</g>
</g>
</g>
<g id="xtick2">
<g id="line2d5">
<g ><use style="fill: none; stroke: #000000; stroke-width: 0.500000; stroke-linejoin: round; stroke-linecap: butt;  opacity: 1.000000" xlink:href="#m30e32995789d870ad79a2e54c91cf9c6" x="152.000000" y="324.000000"/>
</g></g>
<g id="line2d6">
<g ><use style="fill: none; stroke: #000000; stroke-width: 0.500000; stroke-linejoin: round; stroke-linecap: butt;  opacity: 1.000000" xlink:href="#m9281cae24120827b11d5ea8a7ad3e96b" x="152.000000" y="36.000000"/>
</g></g>
<g id="text2">
<defs>
<path id="c_42baa63129a918535c52adb20d687ea7" d="M12.406250 -8.296875l16.109375 0.000000l0.000000 -55.625000l-17.531250 3.515625l0.000000 -8.984375l17.437500 -3.515625l9.859375 0.000000l0.000000 64.609375l16.109375 0.000000l0.000000 8.296875l-41.984375 0.000000z"/>
</defs>
<g style="fill: #000000; opacity: 1.000000" transform="translate(149.390625,336.750000)scale(0.120000)">
<use xlink:href="#c_42baa63129a918535c52adb20d687ea7"/>
</g>
</g>
</g>
<g id="xtick3">
<g id="line2d7">
<g ><use style="fill: none; stroke: #000000; stroke-width: 0.500000; stroke-linejoin: round; stroke-linecap: butt;  opacity: 1.000000" xlink:href="#m30e32995789d870ad79a2e54c91cf9c6" x="214.000000" y="324.000000"/>
</g></g>
<g id="line2d8">
<g ><use style="fill: none; stroke: #000000; stroke-width: 0.500000; stroke-linejoin: round; stroke-linecap: butt;  opacity: 1.000000" xlink:href="#m9281cae24120827b11d5ea8a7ad3e96b" x="214.000000" y="36.000000"/>
</g></g>
<g id="text3">
<defs>
<path id="c_ed3f3ed3ebfbd18bcb9c012009a68ad1" d="M19.187500 -8.296875l34.421875 0.000000l0.000000 8.296875l-46.281250 0.000000l0.000000 -8.296875q5.609375 -5.812500 15.296875 -15.593750q9.703125 -9.796875 12.187500 -12.640625q4.734375 -5.312500 6.609375 -9.000000q1.890625 -3.687500 1.890625 -7.250000q0.000000 -5.812500 -4.078125 -9.468750q-4.078125 -3.671875 -10.625000 -3.671875q-4.640625 0.000000 -9.796875 1.609375q-5.140625 1.609375 -11.000000 4.890625l0.000000 -9.968750q5.953125 -2.390625 11.125000 -3.609375q5.187500 -1.218750 9.484375 -1.218750q11.328125 0.000000 18.062500 5.671875q6.734375 5.656250 6.734375 15.125000q0.000000 4.500000 -1.687500 8.531250q-1.671875 4.015625 -6.125000 9.484375q-1.218750 1.421875 -7.765625 8.187500q-6.531250 6.765625 -18.453125 18.921875"/>
</defs>
<g style="fill: #000000; opacity: 1.000000" transform="translate(211.218750,336.906250)scale(0.120000)">
<use xlink:href="#c_ed3f3ed3ebfbd18bcb9c012009a68ad1"/>
</g>
</g>
</g>
<g id="xtick4">
<g id="line2d9">
<g ><use style="fill: none; stroke: #000000; stroke-width: 0.500000; stroke-linejoin: round; stroke-linecap: butt;  opacity: 1.000000" xlink:href="#m30e32995789d870ad79a2e54c91cf9c6" x="276.000000" y="324.000000"/>
</g></g>
<g id="line2d10">
<g ><use style="fill: none; stroke: #000000; stroke-width: 0.500000; stroke-linejoin: round; stroke-linecap: butt;  opacity: 1.000000" xlink:href="#m9281cae24120827b11d5ea8a7ad3e96b" x="276.000000" y="36.000000"/>
</g></g>
<g id="text4">
<defs>
<path id="c_3dcfa38a02242cb63ec6726c6e70be7a" d="M40.578125 -39.312500q7.078125 1.515625 11.046875 6.312500q3.984375 4.781250 3.984375 11.812500q0.000000 10.781250 -7.421875 16.703125q-7.421875 5.906250 -21.093750 5.906250q-4.578125 0.000000 -9.437500 -0.906250q-4.859375 -0.906250 -10.031250 -2.718750l0.000000 -9.515625q4.093750 2.390625 8.968750 3.609375q4.890625 1.218750 10.218750 1.218750q9.265625 0.000000 14.125000 -3.656250q4.859375 -3.656250 4.859375 -10.640625q0.000000 -6.453125 -4.515625 -10.078125q-4.515625 -3.640625 -12.562500 -3.640625l-8.500000 0.000000l0.000000 -8.109375l8.890625 0.000000q7.265625 0.000000 11.125000 -2.906250q3.859375 -2.906250 3.859375 -8.375000q0.000000 -5.609375 -3.984375 -8.609375q-3.968750 -3.015625 -11.390625 -3.015625q-4.062500 0.000000 -8.703125 0.890625q-4.640625 0.875000 -10.203125 2.718750l0.000000 -8.781250q5.625000 -1.562500 10.531250 -2.343750q4.906250 -0.781250 9.250000 -0.781250q11.234375 0.000000 17.765625 5.109375q6.546875 5.093750 6.546875 13.781250q0.000000 6.062500 -3.468750 10.234375q-3.468750 4.171875 -9.859375 5.781250"/>
</defs>
<g style="fill: #000000; opacity: 1.000000" transform="translate(273.125000,336.906250)scale(0.120000)">
<use xlink:href="#c_3dcfa38a02242cb63ec6726c6e70be7a"/>
</g>
</g>
</g>
<g id="xtick5">
<g id="line2d11">
<g ><use style="fill: none; stroke: #000000; stroke-width: 0.500000; stroke-linejoin: round; stroke-linecap: butt;  opacity: 1.000000" xlink:href="#m30e32995789d870ad79a2e54c91cf9c6" x="338.000000" y="324.000000"/>
</g></g>
<g id="line2d12">
<g ><use style="fill: none; stroke: #000000; stroke-width: 0.500000; stroke-linejoin: round; stroke-linecap: butt;  opacity: 1.000000" xlink:href="#m9281cae24120827b11d5ea8a7ad3e96b" x="338.000000" y="36.000000"/>
</g></g>
<g id="text5">
<defs>
<path id="c_a0416418d96557a09b8c1332d34883ba" d="M37.796875 -64.312500l-24.906250 38.921875l24.906250 0.000000zM35.203125 -72.906250l12.406250 0.000000l0.000000 47.515625l10.406250 0.000000l0.000000 8.203125l-10.406250 0.000000l0.000000 17.187500l-9.812500 0.000000l0.000000 -17.187500l-32.906250 0.000000l0.000000 -9.515625z"/>
</defs>
<g style="fill: #000000; opacity: 1.000000" transform="translate(334.812500,336.750000)scale(0.120000)">
<use xlink:href="#c_a0416418d96557a09b8c1332d34883ba"/>
</g>
</g>
</g>
<g id="xtick6">
<g id="line2d13">
<g ><use style="fill: none; stroke: #000000; stroke-width: 0.500000; stroke-linejoin: round; stroke-linecap: butt;  opacity: 1.000000" xlink:href="#m30e32995789d870ad79a2e54c91cf9c6" x="400.000000" y="324.000000"/>
</g></g>
<g id="line2d14">
<g ><use style="fill: none; stroke: #000000; stroke-width: 0.500000; stroke-linejoin: round; stroke-linecap: butt;  opacity: 1.000000" xlink:href="#m9281cae24120827b11d5ea8a7ad3e96b" x="400.000000" y="36.000000"/>
</g></g>
<g id="text6">
<defs>
<path id="c_1260a2df50f305f3db244e29828f968e" d="M10.796875 -72.906250l38.718750 0.000000l0.000000 8.312500l-29.687500 0.000000l0.000000 17.859375q2.140625 -0.734375 4.281250 -1.093750q2.156250 -0.359375 4.312500 -0.359375q12.203125 0.000000 19.328125 6.687500q7.140625 6.687500 7.140625 18.109375q0.000000 11.765625 -7.328125 18.296875q-7.328125 6.515625 -20.656250 6.515625q-4.593750 0.000000 -9.359375 -0.781250q-4.750000 -0.781250 -9.828125 -2.343750l0.000000 -9.921875q4.390625 2.390625 9.078125 3.562500q4.687500 1.171875 9.906250 1.171875q8.453125 0.000000 13.375000 -4.437500q4.937500 -4.437500 4.937500 -12.062500q0.000000 -7.609375 -4.937500 -12.046875q-4.921875 -4.453125 -13.375000 -4.453125q-3.953125 0.000000 -7.890625 0.875000q-3.921875 0.875000 -8.015625 2.734375z"/>
</defs>
<g style="fill: #000000; opacity: 1.000000" transform="translate(397.164062,336.750000)scale(0.120000)">
<use xlink:href="#c_1260a2df50f305f3db244e29828f968e"/>
</g>
</g>
</g>
<g id="xtick7">
<g id="line2d15">
<g ><use style="fill: none; stroke: #000000; stroke-width: 0.500000; stroke-linejoin: round; stroke-linecap: butt;  opacity: 1.000000" xlink:href="#m30e32995789d870ad79a2e54c91cf9c6" x="462.000000" y="324.000000"/>
</g></g>
<g id="line2d16">
<g ><use style="fill: none; stroke: #000000; stroke-width: 0.500000; stroke-linejoin: round; stroke-linecap: butt;  opacity: 1.000000" xlink:href="#m9281cae24120827b11d5ea8a7ad3e96b" x="462.000000" y="36.000000"/>
</g></g>
<g id="text7">
<defs>
<path id="c_cc8d6d580d1b10c8632f7a42cd53db8a" d="M33.015625 -40.375000q-6.640625 0.000000 -10.531250 4.546875q-3.875000 4.531250 -3.875000 12.437500q0.000000 7.859375 3.875000 12.437500q3.890625 4.562500 10.531250 4.562500q6.640625 0.000000 10.515625 -4.562500q3.875000 -4.578125 3.875000 -12.437500q0.000000 -7.906250 -3.875000 -12.437500q-3.875000 -4.546875 -10.515625 -4.546875M52.593750 -71.296875l0.000000 8.984375q-3.718750 -1.750000 -7.500000 -2.671875q-3.781250 -0.937500 -7.500000 -0.937500q-9.765625 0.000000 -14.921875 6.593750q-5.140625 6.593750 -5.875000 19.921875q2.875000 -4.250000 7.218750 -6.515625q4.359375 -2.265625 9.578125 -2.265625q10.984375 0.000000 17.359375 6.671875q6.375000 6.656250 6.375000 18.125000q0.000000 11.234375 -6.640625 18.031250q-6.640625 6.781250 -17.671875 6.781250q-12.656250 0.000000 -19.343750 -9.687500q-6.687500 -9.703125 -6.687500 -28.109375q0.000000 -17.281250 8.203125 -27.562500q8.203125 -10.281250 22.015625 -10.281250q3.718750 0.000000 7.500000 0.734375q3.781250 0.734375 7.890625 2.187500"/>
</defs>
<g style="fill: #000000; opacity: 1.000000" transform="translate(458.984375,336.906250)scale(0.120000)">
<use xlink:href="#c_cc8d6d580d1b10c8632f7a42cd53db8a"/>
</g>
</g>
</g>
<g id="xtick8">
<g id="line2d17">
<g ><use style="fill: none; stroke: #000000; stroke-width: 0.500000; stroke-linejoin: round; stroke-linecap: butt;  opacity: 1.000000" xlink:href="#m30e32995789d870ad79a2e54c91cf9c6" x="524.000000" y="324.000000"/>
</g></g>
<g id="line2d18">
<g ><use style="fill: none; stroke: #000000; stroke-width: 0.500000; stroke-linejoin: round; stroke-linecap: butt;  opacity: 1.000000" xlink:href="#m9281cae24120827b11d5ea8a7ad3e96b" x="524.000000" y="36.000000"/>
</g></g>
<g id="text8">
<defs>
<path id="c_956f18cfdaf972f35a6c2b4aaac2532b" d="M8.203125 -72.906250l46.875000 0.000000l0.000000 4.203125l-26.468750 68.703125l-10.296875 0.000000l24.906250 -64.593750l-35.015625 0.000000z"/>
</defs>
<g style="fill: #000000; opacity: 1.000000" transform="translate(521.187500,336.750000)scale(0.120000)">
<use xlink:href="#c_956f18cfdaf972f35a6c2b4aaac2532b"/>
</g>
</g>
</g>
<g id="xtick9">
<g id="line2d19">
<g ><use style="fill: none; stroke: #000000; stroke-width: 0.500000; stroke-linejoin: round; stroke-linecap: butt;  opacity: 1.000000" xlink:href="#m30e32995789d870ad79a2e54c91cf9c6" x="586.000000" y="324.000000"/>
</g></g>
<g id="line2d20">
<g ><use style="fill: none; stroke: #000000; stroke-width: 0.500000; stroke-linejoin: round; stroke-linecap: butt;  opacity: 1.000000" xlink:href="#m9281cae24120827b11d5ea8a7ad3e96b" x="586.000000" y="36.000000"/>
</g></g>
<g id="text9">
<defs>
<path id="c_bef35738d52871942e50b9de9b122bab" d="M31.781250 -34.625000q-7.031250 0.000000 -11.062500 3.765625q-4.015625 3.765625 -4.015625 10.343750q0.000000 6.593750 4.015625 10.359375q4.031250 3.765625 11.062500 3.765625q7.031250 0.000000 11.078125 -3.781250q4.062500 -3.796875 4.062500 -10.343750q0.000000 -6.578125 -4.031250 -10.343750q-4.015625 -3.765625 -11.109375 -3.765625M21.921875 -38.812500q-6.343750 -1.562500 -9.890625 -5.906250q-3.531250 -4.359375 -3.531250 -10.609375q0.000000 -8.734375 6.218750 -13.812500q6.234375 -5.078125 17.062500 -5.078125q10.890625 0.000000 17.093750 5.078125q6.203125 5.078125 6.203125 13.812500q0.000000 6.250000 -3.546875 10.609375q-3.531250 4.343750 -9.828125 5.906250q7.125000 1.656250 11.093750 6.500000q3.984375 4.828125 3.984375 11.796875q0.000000 10.609375 -6.468750 16.281250q-6.468750 5.656250 -18.531250 5.656250q-12.046875 0.000000 -18.531250 -5.656250q-6.468750 -5.671875 -6.468750 -16.281250q0.000000 -6.968750 4.000000 -11.796875q4.015625 -4.843750 11.140625 -6.500000M18.312500 -54.390625q0.000000 5.656250 3.531250 8.828125q3.546875 3.171875 9.937500 3.171875q6.359375 0.000000 9.937500 -3.171875q3.593750 -3.171875 3.593750 -8.828125q0.000000 -5.671875 -3.593750 -8.843750q-3.578125 -3.171875 -9.937500 -3.171875q-6.390625 0.000000 -9.937500 3.171875q-3.531250 3.171875 -3.531250 8.843750"/>
</defs>
<g style="fill: #000000; opacity: 1.000000" transform="translate(583.000000,336.906250)scale(0.120000)">
<use xlink:href="#c_bef35738d52871942e50b9de9b122bab"/>
</g>
</g>
</g>
<g id="xtick10">
<g id="line2d21">
<g ><use style="fill: none; stroke: #000000; stroke-width: 0.500000; stroke-linejoin: round; stroke-linecap: butt;  opacity: 1.000000" xlink:href="#m30e32995789d870ad79a2e54c91cf9c6" x="648.000000" y="324.000000"/>
</g></g>
<g id="line2d22">
<g ><use style="fill: none; stroke: #000000; stroke-width: 0.500000; stroke-linejoin: round; stroke-linecap: butt;  opacity: 1.000000" xlink:href="#m9281cae24120827b11d5ea8a7ad3e96b" x="648.000000" y="36.000000"/>
</g></g>
<g id="text10">
<defs>
<path id="c_cd96f817f3cab988d24a2b49a5577fe6" d="M10.984375 -1.515625l0.000000 -8.984375q3.718750 1.765625 7.515625 2.687500q3.812500 0.921875 7.484375 0.921875q9.765625 0.000000 14.906250 -6.562500q5.156250 -6.562500 5.890625 -19.953125q-2.828125 4.203125 -7.187500 6.453125q-4.343750 2.250000 -9.609375 2.250000q-10.937500 0.000000 -17.312500 -6.609375q-6.375000 -6.625000 -6.375000 -18.109375q0.000000 -11.218750 6.640625 -18.000000q6.640625 -6.796875 17.671875 -6.796875q12.656250 0.000000 19.312500 9.703125q6.671875 9.687500 6.671875 28.140625q0.000000 17.234375 -8.187500 27.515625q-8.171875 10.281250 -21.984375 10.281250q-3.718750 0.000000 -7.531250 -0.734375q-3.796875 -0.734375 -7.906250 -2.203125M30.609375 -32.421875q6.640625 0.000000 10.515625 -4.531250q3.890625 -4.546875 3.890625 -12.468750q0.000000 -7.859375 -3.890625 -12.421875q-3.875000 -4.562500 -10.515625 -4.562500q-6.640625 0.000000 -10.515625 4.562500q-3.875000 4.562500 -3.875000 12.421875q0.000000 7.921875 3.875000 12.468750q3.875000 4.531250 10.515625 4.531250"/>
</defs>
<g style="fill: #000000; opacity: 1.000000" transform="translate(644.976562,336.906250)scale(0.120000)">
<use xlink:href="#c_cd96f817f3cab988d24a2b49a5577fe6"/>
</g>
</g>
</g>
</g>
<g id="matplotlib.axis2">
<g id="ytick1">
<g id="line2d23">
<defs><path id="m3400efa6b1638b3fea9e19e898273957" d="M0.000000 0.000000L4.000000 0.000000"/></defs>
<g ><use style="fill: none; stroke: #000000; stroke-width: 0.500000; stroke-linejoin: round; stroke-linecap: butt;  opacity: 1.000000" xlink:href="#m3400efa6b1638b3fea9e19e898273957" x="90.000000" y="324.000000"/>
</g></g>
<g id="line2d24">
<defs><path id="m20b58b2501143cb5e0a5e8f1ef6f1643" d="M0.000000 0.000000L-4.000000 0.000000"/></defs>
<g ><use style="fill: none; stroke: #000000; stroke-width: 0.500000; stroke-linejoin: round; stroke-linecap: butt;  opacity: 1.000000" xlink:href="#m20b58b2501143cb5e0a5e8f1ef6f1643" x="648.000000" y="324.000000"/>
</g></g>
<g id="text11">
<g style="fill: #000000; opacity: 1.000000" transform="translate(79.953125,328.367188)scale(0.120000)">
<use xlink:href="#c_7a2040fe3b94fcd41d0a72c84e93b115"/>
</g>
</g>
</g>
<g id="ytick2">
<g id="line2d25">
<g ><use style="fill: none; stroke: #000000; stroke-width: 0.500000; stroke-linejoin: round; stroke-linecap: butt;  opacity: 1.000000" xlink:href="#m3400efa6b1638b3fea9e19e898273957" x="90.000000" y="252.000000"/>
</g></g>
<g id="line2d26">
<g ><use style="fill: none; stroke: #000000; stroke-width: 0.500000; stroke-linejoin: round; stroke-linecap: butt;  opacity: 1.000000" xlink:href="#m20b58b2501143cb5e0a5e8f1ef6f1643" x="648.000000" y="252.000000"/>
</g></g>
<g id="text12">
<g style="fill: #000000; opacity: 1.000000" transform="translate(80.328125,256.289062)scale(0.120000)">
<use xlink:href="#c_1260a2df50f305f3db244e29828f968e"/>
</g>
</g>
</g>
<g id="ytick3">
<g id="line2d27">
<g ><use style="fill: none; stroke: #000000; stroke-width: 0.500000; stroke-linejoin: round; stroke-linecap: butt;  opacity: 1.000000" xlink:href="#m3400efa6b1638b3fea9e19e898273957" x="90.000000" y="180.000000"/>
</g></g>
<g id="line2d28">
<g ><use style="fill: none; stroke: #000000; stroke-width: 0.500000; stroke-linejoin: round; stroke-linecap: butt;  opacity: 1.000000" xlink:href="#m20b58b2501143cb5e0a5e8f1ef6f1643" x="648.000000" y="180.000000"/>
</g></g>
<g id="text13">
<g style="fill: #000000; opacity: 1.000000" transform="translate(72.828125,184.367188)scale(0.120000)">
<use xlink:href="#c_42baa63129a918535c52adb20d687ea7"/>
<use xlink:href="#c_7a2040fe3b94fcd41d0a72c84e93b115" x="63.623047"/>
</g>
</g>
</g>
<g id="ytick4">
<g id="line2d29">
<g ><use style="fill: none; stroke: #000000; stroke-width: 0.500000; stroke-linejoin: round; stroke-linecap: butt;  opacity: 1.000000" xlink:href="#m3400efa6b1638b3fea9e19e898273957" x="90.000000" y="108.000000"/>
</g></g>
<g id="line2d30">
<g ><use style="fill: none; stroke: #000000; stroke-width: 0.500000; stroke-linejoin: round; stroke-linecap: butt;  opacity: 1.000000" xlink:href="#m20b58b2501143cb5e0a5e8f1ef6f1643" x="648.000000" y="108.000000"/>
</g></g>
<g id="text14">
<g style="fill: #000000; opacity: 1.000000" transform="translate(73.078125,112.289062)scale(0.120000)">
<use xlink:href="#c_42baa63129a918535c52adb20d687ea7"/>
<use xlink:href="#c_1260a2df50f305f3db244e29828f968e" x="63.623047"/>
</g>
</g>
</g>
<g id="ytick5">
<g id="line2d31">
<g ><use style="fill: none; stroke: #000000; stroke-width: 0.500000; stroke-linejoin: round; stroke-linecap: butt;  opacity: 1.000000" xlink:href="#m3400efa6b1638b3fea9e19e898273957" x="90.000000" y="36.000000"/>
</g></g>
<g id="line2d32">
<g ><use style="fill: none; stroke: #000000; stroke-width: 0.500000; stroke-linejoin: round; stroke-linecap: butt;  opacity: 1.000000" xlink:href="#m20b58b2501143cb5e0a5e8f1ef6f1643" x="648.000000" y="36.000000"/>
</g></g>
<g id="text15">
<g style="fill: #000000; opacity: 1.000000" transform="translate(72.390625,40.367188)scale(0.120000)">
<use xlink:href="#c_ed3f3ed3ebfbd18bcb9c012009a68ad1"/>
<use xlink:href="#c_7a2040fe3b94fcd41d0a72c84e93b115" x="63.623047"/>
</g>
</g>
</g>
</g>
<g id="patch3">
<path style="fill: none; stroke: #000000; stroke-width: 1.000000; stroke-linejoin: round; stroke-linecap: square;  opacity: 1.000000"  d="M90.000000 36.000000L648.000000 36.000000"/>
</g>
<g id="patch4">
<path style="fill: none; stroke: #000000; stroke-width: 1.000000; stroke-linejoin: round; stroke-linecap: square;  opacity: 1.000000"  d="M648.000000 324.000000L648.000000 36.000000"/>
</g>
<g id="patch5">
<path style="fill: none; stroke: #000000; stroke-width: 1.000000; stroke-linejoin: round; stroke-linecap: square;  opacity: 1.000000"  d="M90.000000 324.000000L648.000000 324.000000"/>
</g>
<g id="patch6">
<path style="fill: none; stroke: #000000; stroke-width: 1.000000; stroke-linejoin: round; stroke-linecap: square;  opacity: 1.000000"  d="M90.000000 324.000000L90.000000 36.000000"/>
</g>
<g id="legend1">
<g id="patch7">
<path style="fill: #ffffff; stroke: #000000; stroke-width: 1.000000; stroke-linejoin: round; stroke-linecap: square;  opacity: 1.000000"  d="M270.230937 65.563750L467.769062 65.563750L467.769062 43.200000
L270.230937 43.200000L270.230937 65.563750z"/>
</g>
<g id="line2d33">
<path style="fill: none; stroke: #0000ff; stroke-width: 1.000000; stroke-linejoin: round; stroke-linecap: square;  opacity: 1.000000"  d="M280.310937 54.560625L300.470937 54.560625"/>
</g>
<g id="line2d34">
</g>
<g id="text16">
<defs>
<path id="c_5099edb83619131346ae654950954dea" d="M9.421875 -75.984375l8.984375 0.000000l0.000000 75.984375l-8.984375 0.000000z"/>
<path id="c_6a63bda47b2f3da1cec6aadd80692cfe" d="M9.421875 -54.687500l8.984375 0.000000l0.000000 54.687500l-8.984375 0.000000zM9.421875 -75.984375l8.984375 0.000000l0.000000 11.390625l-8.984375 0.000000z"/>
<path id="c_fe791a90f5471e2ab20a5ed41a7fa451" d="M54.890625 -33.015625l0.000000 33.015625l-8.984375 0.000000l0.000000 -32.718750q0.000000 -7.765625 -3.031250 -11.609375q-3.031250 -3.859375 -9.078125 -3.859375q-7.281250 0.000000 -11.484375 4.640625q-4.203125 4.625000 -4.203125 12.640625l0.000000 30.906250l-9.031250 0.000000l0.000000 -54.687500l9.031250 0.000000l0.000000 8.500000q3.234375 -4.937500 7.593750 -7.375000q4.375000 -2.437500 10.093750 -2.437500q9.421875 0.000000 14.250000 5.828125q4.843750 5.828125 4.843750 17.156250"/>
<path id="c_0bce5afba2dc6b9024b26277c38ad8e8" d="M56.203125 -29.593750l0.000000 4.390625l-41.312500 0.000000q0.593750 9.281250 5.593750 14.140625q5.000000 4.859375 13.937500 4.859375q5.171875 0.000000 10.031250 -1.265625q4.859375 -1.265625 9.656250 -3.812500l0.000000 8.500000q-4.843750 2.046875 -9.921875 3.125000q-5.078125 1.078125 -10.296875 1.078125q-13.093750 0.000000 -20.734375 -7.609375q-7.640625 -7.625000 -7.640625 -20.625000q0.000000 -13.421875 7.250000 -21.296875q7.250000 -7.890625 19.562500 -7.890625q11.031250 0.000000 17.453125 7.109375q6.421875 7.093750 6.421875 19.296875M47.218750 -32.234375q-0.093750 -7.359375 -4.125000 -11.750000q-4.031250 -4.406250 -10.671875 -4.406250q-7.515625 0.000000 -12.031250 4.250000q-4.515625 4.250000 -5.203125 11.968750z"/>
<path id="c_d41d8cd98f00b204e9800998ecf8427e" d=""/>
</defs>
<g style="fill: #000000; opacity: 1.000000" transform="translate(316.310937,59.600625)scale(0.144000)">
<use xlink:href="#c_5099edb83619131346ae654950954dea"/>
<use xlink:href="#c_6a63bda47b2f3da1cec6aadd80692cfe" x="27.783203"/>
<use xlink:href="#c_fe791a90f5471e2ab20a5ed41a7fa451" x="55.566406"/>
<use xlink:href="#c_0bce5afba2dc6b9024b26277c38ad8e8" x="118.945312"/>
<use xlink:href="#c_d41d8cd98f00b204e9800998ecf8427e" x="180.468750"/>
<use xlink:href="#c_42baa63129a918535c52adb20d687ea7" x="212.255859"/>
</g>
</g>
<g id="line2d35">
<path style="fill: none; stroke: #008000; stroke-width: 1.000000; stroke-linejoin: round; stroke-linecap: square;  opacity: 1.000000"  d="M387.774687 54.560625L407.934687 54.560625"/>
</g>
<g id="line2d36">
</g>
<g id="text17">
<g style="fill: #000000; opacity: 1.000000" transform="translate(423.774687,59.600625)scale(0.144000)">
<use xlink:href="#c_5099edb83619131346ae654950954dea"/>
<use xlink:href="#c_6a63bda47b2f3da1cec6aadd80692cfe" x="27.783203"/>
<use xlink:href="#c_fe791a90f5471e2ab20a5ed41a7fa451" x="55.566406"/>
<use xlink:href="#c_0bce5afba2dc6b9024b26277c38ad8e8" x="118.945312"/>
<use xlink:href="#c_d41d8cd98f00b204e9800998ecf8427e" x="180.468750"/>
<use xlink:href="#c_ed3f3ed3ebfbd18bcb9c012009a68ad1" x="212.255859"/>
</g>
</g>
</g>
</g>
</g>
</svg>
